<?xml version="1.0" standalone="no"?>
<!DOCTYPE svg PUBLIC "-//W3C//DTD SVG 20010904//EN"
 "http://www.w3.org/TR/2001/REC-SVG-20010904/DTD/svg10.dtd">
<svg version="1.0" xmlns="http://www.w3.org/2000/svg"
 width="411.000000pt" height="411.000000pt" viewBox="0 0 411.000000 411.000000"
 preserveAspectRatio="xMidYMid meet">
<metadata>
Created by potrace 1.14, written by Peter Selinger 2001-2017
</metadata>
<g transform="translate(0.000000,411.000000) scale(0.100000,-0.100000)"
fill="#000000" stroke="none">
<path d="M1817 4095 c-37 -7 -69 -14 -72 -17 -6 -5 3 -70 30 -228 4 -25 1 -32
-20 -42 -34 -15 -51 1 -59 60 -7 51 -13 92 -20 132 -3 14 -5 35 -5 47 -1 16
-6 21 -23 19 -29 -4 -130 -19 -140 -22 -5 -1 -14 -2 -22 -3 -9 0 -13 -9 -11
-20 6 -31 14 -84 20 -136 11 -89 34 -154 61 -171 81 -54 326 -17 390 59 24 29
26 36 21 97 -3 36 -8 76 -11 90 -3 14 -9 45 -12 70 -11 89 -3 85 -127 65z"/>
<path d="M2140 4100 c-91 -25 -140 -90 -140 -184 0 -147 100 -207 332 -203 58
1 109 5 113 8 5 6 10 38 19 132 2 20 0 37 -3 38 -3 0 -15 2 -26 4 -11 1 -48 6
-82 9 -60 5 -63 5 -64 -17 -5 -81 -7 -84 -56 -66 -70 27 -64 115 10 133 33 9
140 0 206 -16 14 -3 18 10 23 81 l2 46 -49 13 c-100 25 -236 36 -285 22z"/>
<path d="M2544 4032 c3 -20 8 -48 11 -62 3 -14 8 -41 11 -60 3 -19 7 -42 9
-50 15 -57 15 -106 0 -151 -10 -28 -15 -52 -14 -53 4 -3 169 -66 174 -66 1 0
13 24 25 53 19 45 35 62 127 132 58 44 112 86 120 94 17 16 28 11 -108 61
l-75 28 -34 -39 c-18 -22 -36 -37 -39 -33 -3 3 -6 26 -7 50 -1 25 -5 49 -10
54 -5 5 -51 24 -103 44 l-93 35 6 -37z"/>
<path d="M1265 3947 c-103 -18 -236 -100 -271 -169 -42 -81 11 -219 99 -258
71 -32 177 -9 292 65 108 69 134 153 80 260 -46 91 -102 120 -200 102z m8
-165 c23 -25 39 -73 33 -97 -6 -25 -50 -48 -75 -40 -22 7 -61 66 -61 93 0 27
37 62 65 62 12 0 29 -8 38 -18z"/>
<path d="M3068 3833 c-22 -25 -208 -273 -208 -277 0 -2 33 -28 73 -59 l73 -55
53 72 c30 39 51 62 47 51 -18 -49 -46 -141 -46 -152 0 -6 19 -25 41 -42 l41
-30 76 51 c80 54 81 53 15 -34 l-43 -56 77 -55 76 -56 107 142 c59 78 108 146
110 152 2 5 -40 43 -93 83 l-96 74 -63 -45 c-35 -24 -68 -47 -75 -51 -10 -5
13 76 42 146 5 13 -15 33 -88 87 -51 39 -96 71 -99 71 -3 0 -12 -8 -20 -17z"/>
<path d="M771 3670 l-65 -59 47 -50 c26 -28 47 -52 47 -55 0 -5 -2 -5 -99 19
-35 9 -68 14 -71 13 -13 -5 -140 -121 -140 -128 0 -3 8 -15 18 -26 10 -10 62
-68 116 -129 54 -60 102 -113 105 -118 4 -4 18 2 32 14 75 65 110 100 107 108
-2 5 -25 33 -53 62 l-49 52 49 -6 c28 -4 61 -9 75 -12 82 -17 78 -18 145 42
l63 57 -66 75 c-37 42 -76 85 -87 97 -11 11 -37 40 -58 62 -21 23 -41 42 -45
42 -4 -1 -36 -28 -71 -60z"/>
<path d="M1875 3559 c-33 -5 -76 -11 -95 -13 -72 -11 -228 -58 -325 -99 -331
-141 -612 -402 -769 -714 -159 -318 -205 -734 -116 -1064 7 -24 13 -51 15 -59
2 -8 15 -49 30 -90 135 -371 406 -674 760 -850 176 -87 336 -133 535 -155 62
-7 252 -7 290 -1 14 2 50 7 80 10 87 11 273 63 372 106 515 222 856 679 925
1240 13 108 6 342 -13 435 -3 11 -9 42 -14 69 -39 196 -183 491 -311 636 -262
297 -535 460 -893 532 -111 22 -365 31 -471 17z m385 -236 c265 -41 515 -170
710 -363 201 -199 341 -476 375 -741 16 -123 12 -310 -10 -414 -3 -16 -8 -43
-11 -59 -12 -66 -58 -188 -109 -291 -180 -363 -533 -626 -940 -699 -110 -20
-373 -15 -480 8 -250 55 -464 169 -638 339 -106 104 -150 159 -220 275 -143
239 -202 513 -174 807 7 76 8 78 31 177 76 326 308 629 620 808 132 76 319
140 454 156 31 3 59 8 61 9 10 10 249 1 331 -12z"/>
<path d="M1940 3195 c-8 -2 -32 -6 -52 -10 l-38 -6 0 -460 c0 -257 -4 -459 -9
-457 -7 2 -68 56 -201 178 -15 14 -60 55 -101 91 -41 36 -132 119 -204 183
l-130 116 -39 -42 c-59 -66 -114 -151 -162 -252 -172 -363 -137 -811 90 -1146
44 -66 56 -76 56 -51 0 20 5 21 173 21 1635 3 1662 2 1641 -32 -3 -4 -3 -8 0
-8 11 0 88 123 131 207 51 103 63 143 44 143 -8 1 -435 1 -950 0 l-936 -1 -22
53 c-44 111 -55 177 -55 318 0 135 11 204 51 307 10 29 20 40 28 35 11 -6 71
-60 225 -202 15 -14 47 -43 71 -65 66 -59 249 -226 289 -263 37 -34 84 -52
137 -52 44 0 75 13 117 50 26 23 40 29 49 22 13 -10 110 -47 154 -59 15 -4
222 -8 460 -10 l432 -4 6 23 c19 78 25 283 11 371 -3 20 -9 54 -12 74 -8 51
-45 167 -54 173 -5 3 -151 5 -326 5 l-318 0 -53 -108 c-29 -59 -55 -117 -58
-130 l-6 -22 271 0 c150 0 274 -3 276 -7 2 -3 7 -30 10 -60 l6 -54 -264 1
c-317 2 -352 9 -434 90 -41 40 -54 61 -64 102 -27 118 30 223 152 278 l63 29
342 1 c188 0 344 3 347 6 15 15 -124 201 -219 294 -176 172 -369 272 -616 320
-37 7 -284 15 -309 10z m325 -296 c59 -15 155 -51 155 -58 0 -3 -23 -7 -51 -9
-28 -2 -89 -14 -135 -28 -46 -13 -86 -24 -87 -24 -3 0 -1 131 2 137 2 4 71 -7
116 -18z"/>
<path d="M1230 1229 c0 -4 20 -25 44 -47 165 -152 390 -259 611 -290 66 -9
275 -9 350 1 143 18 329 91 469 185 69 47 176 138 176 151 0 3 -102 6 -227 5
-227 -1 -228 -1 -320 -32 -188 -64 -387 -62 -568 4 -67 25 -80 26 -302 28
-128 1 -233 -2 -233 -5z"/>
<path d="M268 2994 c-13 -21 -33 -54 -44 -72 -18 -32 -34 -39 -124 -57 -61
-13 -62 -16 -4 -84 l55 -63 -7 -84 c-4 -46 -4 -84 -1 -84 3 0 35 14 72 30 37
17 73 30 80 30 7 0 43 -13 80 -30 37 -16 69 -30 72 -30 2 0 2 38 -1 85 l-5 85
54 62 c34 41 49 65 42 69 -7 4 -44 14 -84 24 -71 17 -73 18 -102 68 -55 96
-55 97 -83 51z"/>
<path d="M3730 2969 c-41 -73 -56 -83 -135 -100 -33 -7 -63 -15 -68 -19 -7 -6
11 -30 74 -103 18 -20 26 -39 23 -56 -9 -69 -12 -141 -5 -141 4 0 25 8 47 19
96 46 103 46 183 12 40 -17 75 -31 77 -31 3 0 2 39 -1 88 l-6 87 50 55 c28 30
49 59 48 64 -3 10 -90 35 -125 36 -17 0 -34 18 -70 75 -26 41 -49 75 -52 75
-3 0 -21 -28 -40 -61z"/>
<path d="M30 2235 c0 -47 3 -86 8 -86 4 -1 33 -2 65 -4 31 -1 59 -4 62 -7 3
-3 -28 -28 -68 -57 l-73 -51 -2 -83 -3 -82 63 -1 c35 -1 112 -3 172 -4 66 -1
111 2 115 8 3 6 6 43 6 84 l0 73 -67 5 -67 5 69 45 c38 25 70 52 71 60 0 8 1
50 3 93 l2 77 -56 1 c-30 0 -110 2 -177 4 l-123 5 0 -85z"/>
<path d="M3915 2259 c-41 -20 -52 -59 -54 -198 -1 -19 -4 -22 -13 -13 -13 13
-17 111 -7 160 4 20 3 35 -5 39 -17 12 -96 10 -97 -2 0 -5 -3 -19 -5 -30 -10
-44 -6 -223 5 -264 7 -24 23 -54 37 -68 l24 -24 -33 6 -33 7 -42 -202 c-28
-132 -49 -212 -62 -230 -40 -56 -101 -197 -107 -248 -4 -40 -2 -57 12 -78 l17
-27 -33 26 c-25 19 -37 22 -44 13 -11 -12 -84 -105 -96 -121 -5 -7 30 -41 86
-85 52 -41 95 -80 95 -87 0 -6 -7 -19 -16 -28 -20 -19 -29 -14 -142 79 -70 57
-75 59 -88 42 -7 -11 -31 -40 -51 -64 -21 -25 -40 -48 -43 -51 -3 -4 -42 -31
-88 -60 -97 -63 -159 -129 -168 -178 -25 -132 102 -252 225 -212 47 15 131 71
194 129 l51 47 -34 44 c-19 24 -35 46 -36 48 -2 2 -27 -17 -56 -43 -29 -25
-68 -53 -86 -62 -31 -15 -35 -14 -53 2 -10 9 -19 26 -19 37 0 24 48 69 111
105 28 15 47 32 44 39 -7 21 4 15 51 -23 24 -20 61 -42 81 -49 33 -11 42 -11
73 5 92 47 200 191 200 267 0 26 -26 83 -38 83 -4 1 -27 19 -52 40 l-45 40 37
-12 c31 -9 41 -8 70 9 18 10 44 39 57 64 40 74 51 90 62 84 8 -6 -40 -106 -77
-160 -21 -30 -17 -39 26 -57 40 -16 40 -16 61 10 35 45 110 206 116 249 7 55
-1 84 -32 115 -30 30 -69 40 -104 26 -32 -11 -53 -37 -87 -105 -25 -49 -44
-68 -44 -42 0 16 29 76 62 128 15 25 28 48 28 52 0 4 -14 12 -32 18 -65 23
-18 19 125 -11 81 -17 149 -29 152 -26 2 2 20 80 40 174 19 93 37 179 40 191
4 19 0 23 -32 30 -52 11 -56 10 -59 -7 -2 -8 -11 -49 -19 -90 -21 -103 -25
-114 -37 -102 -6 6 -3 45 11 113 12 56 20 104 18 106 -2 2 -21 4 -42 6 l-38 2
-18 -75 c-10 -41 -18 -85 -19 -97 0 -12 -4 -25 -10 -28 -22 -14 -27 7 -14 62
7 32 16 73 19 92 3 19 8 37 10 39 3 3 0 11 -5 17 -8 9 -4 11 14 8 33 -7 85 23
97 55 6 15 13 56 15 92 2 36 3 68 4 73 0 4 5 7 11 7 8 0 10 -34 8 -107 l-4
-107 39 -1 c21 -1 44 4 51 11 8 8 13 55 14 144 2 117 0 136 -19 176 -32 65
-97 91 -155 63z"/>
<path d="M180 1839 c-52 -16 -97 -54 -110 -95 -28 -83 10 -259 70 -328 50 -56
140 -67 218 -27 47 24 66 46 81 92 27 83 -14 248 -78 320 -34 38 -42 42 -91
45 -30 2 -71 -1 -90 -7z m111 -179 c14 0 30 -50 23 -72 -7 -24 -60 -47 -93
-41 -28 5 -50 29 -51 56 0 31 64 71 98 61 8 -2 18 -4 23 -4z"/>
<path d="M380 1200 c-74 -54 -136 -103 -138 -108 -2 -6 18 -39 44 -75 l48 -65
65 46 c36 26 61 40 56 32 -5 -8 -26 -39 -47 -69 -21 -29 -35 -59 -31 -65 3 -6
17 -25 30 -43 l23 -32 72 25 c39 13 73 22 75 20 3 -2 -23 -23 -56 -47 l-61
-43 25 -33 c14 -18 37 -49 51 -68 15 -19 30 -35 34 -35 4 0 45 29 92 65 l86
64 -34 -51 c-44 -64 -48 -110 -18 -173 21 -44 109 -124 171 -155 66 -33 139
-37 180 -11 79 50 119 151 88 225 -22 52 -98 124 -174 165 -53 28 -70 32 -117
29 l-55 -3 30 25 30 25 -65 90 c-45 61 -71 89 -82 87 -9 -2 -43 -13 -76 -23
-32 -11 -60 -18 -62 -16 -3 2 16 32 41 66 25 33 45 63 45 66 0 5 -131 185
-133 185 -1 -1 -63 -45 -137 -100z m586 -586 c14 -20 14 -26 0 -51 -18 -36
-37 -52 -65 -58 -25 -5 -61 26 -61 53 0 19 24 60 46 78 20 16 63 5 80 -22z"/>
<path d="M2852 558 c-84 -37 -92 -43 -93 -69 -1 -16 -3 -33 -4 -39 -1 -5 -3
-15 -4 -22 0 -7 -16 3 -35 21 l-34 33 -83 -35 c-76 -32 -183 -56 -382 -84 -21
-3 -46 -6 -55 -8 -9 -2 -20 -4 -23 -4 -3 -1 2 -49 13 -109 10 -59 20 -123 22
-142 9 -76 18 -101 35 -96 9 3 36 8 61 11 25 4 54 9 65 11 11 2 40 7 65 10 25
3 52 7 60 9 8 2 38 7 65 11 61 8 67 11 61 32 -2 10 -7 29 -10 45 -5 22 -11 26
-29 22 -89 -20 -197 -29 -197 -16 0 6 5 12 10 12 6 1 13 2 18 3 4 1 34 6 67
11 33 5 63 9 68 11 4 1 19 2 33 3 25 1 26 3 19 39 -3 20 -10 41 -14 45 -4 4
-52 0 -105 -9 -70 -12 -101 -13 -109 -5 -13 13 -8 15 116 36 95 17 99 18 94
41 -2 13 -2 24 0 24 15 0 123 -67 123 -77 0 -6 -7 -45 -16 -85 -8 -40 -17 -81
-19 -91 -5 -23 -2 -23 93 20 83 37 90 44 95 101 2 27 12 28 44 2 14 -11 31
-20 39 -20 22 0 174 72 169 80 -3 5 -41 29 -85 55 -44 26 -80 52 -80 58 0 7 9
55 20 107 10 52 18 95 17 96 -1 2 -44 -15 -95 -38z"/>
<path d="M1120 420 c-35 -88 -60 -163 -57 -167 8 -7 145 -63 155 -63 4 0 16
21 26 47 l19 46 20 -65 19 -66 92 -36 c50 -20 94 -36 98 -36 3 0 -7 37 -22 83
l-27 82 26 3 c51 5 72 13 92 33 l21 21 -6 -28 c-3 -16 -9 -47 -12 -69 -3 -22
-9 -57 -14 -79 -12 -54 -6 -63 48 -70 26 -3 58 -8 72 -10 14 -3 70 -12 125
-21 55 -8 109 -18 121 -20 18 -4 22 2 31 41 13 54 19 50 -111 69 -23 4 -50 8
-61 10 -11 2 -23 4 -27 4 -5 1 -8 8 -8 17 0 10 6 14 18 10 26 -8 195 -36 198
-33 2 2 6 21 10 44 l6 41 -48 8 c-27 4 -56 8 -64 9 -71 10 -100 19 -100 32 0
10 8 13 28 9 36 -6 87 -14 145 -22 39 -5 47 -3 47 10 0 9 0 17 0 19 1 1 5 19
9 40 5 20 6 37 2 38 -28 3 -74 11 -116 19 -27 5 -68 12 -90 15 -23 3 -50 7
-61 9 -61 12 -135 17 -133 10 4 -23 -3 -22 -28 6 -20 22 -73 49 -183 94 -86
35 -165 66 -176 70 -18 5 -27 -10 -84 -154z m249 -18 c19 -9 33 -20 32 -24 0
-5 -1 -14 -1 -22 0 -21 -24 -26 -64 -14 -37 12 -43 26 -26 59 13 23 15 23 59
1z"/>
</g>
</svg>
